<?xml version="1.0" encoding="UTF-8"?> <svg xmlns="http://www.w3.org/2000/svg" width="128" height="128" viewBox="0 0 128 128" fill="none"> <path d="M16 126H110V23.2L88.8 2H16V126ZM90 8.8L103.2 22H90V8.8ZM20 6H86V26H106V122H20V6Z" fill="#EE7D1B"></path> <path d="M98 42H28V46H98V42Z" fill="#EE7D1B"></path> <path d="M98 52H28V56H98V52Z" fill="#EE7D1B"></path> <path d="M98 62H78V66H98V62Z" fill="#EE7D1B"></path> <path d="M78 22H48V26H78V22Z" fill="#EE7D1B"></path> <path d="M79.0002 77C72.2002 77 66.4002 81 63.6002 86.8H38.3002L31.2002 92.5L38.0002 101.3H44.8002L46.5002 99.6L48.2002 101.3H54.9002L56.6002 99.6L58.3002 101.3H63.8002C66.5002 107.1 72.4002 111.1 79.2002 111.1C88.6002 111.1 96.2002 103.5 96.2002 94.1C96.2002 84.7 88.4002 77 79.0002 77ZM59.8002 97.3L56.5002 94L53.2002 97.3H49.9002L46.6002 94L43.3002 97.3H40.0002L36.8002 93.1L39.7002 90.8H62.3002C62.1002 91.8 62.0002 92.9 62.0002 94C62.0002 95.1 62.1002 96.2 62.3002 97.2H59.8002V97.3ZM79.0002 107C71.8002 107 66.0002 101.2 66.0002 94C66.0002 86.8 71.8002 81 79.0002 81C86.2002 81 92.0002 86.8 92.0002 94C92.0002 101.2 86.2002 107 79.0002 107Z" fill="#EE7D1B"></path> <path d="M84.2002 97C85.857 97 87.2002 95.6569 87.2002 94C87.2002 92.3431 85.857 91 84.2002 91C82.5433 91 81.2002 92.3431 81.2002 94C81.2002 95.6569 82.5433 97 84.2002 97Z" fill="#EE7D1B"></path> </svg> 